<svg width="250" height="250" viewBox="0 0 250 250" fill="none" xmlns="http://www.w3.org/2000/svg">
<path d="M124.605 63.9734C141.535 82.969 141.744 107.757 128.335 119.708C114.925 131.659 90.3244 128.611 73.3944 109.615C56.4644 90.6197 56.2553 65.8315 69.6646 53.8803C83.0739 41.9292 107.675 44.9779 124.605 63.9734Z" stroke="black" stroke-width="10"/>
<line x1="188.501" y1="186.703" x2="131.946" y2="123.248" stroke="black" stroke-width="10"/>
<rect x="197.614" y="213.168" width="40" height="20" transform="rotate(-131.71 197.614 213.168)" fill="black"/>
<path d="M91 152.5C91 145.596 96.5964 140 103.5 140V140C110.404 140 116 145.596 116 152.5V164H91V152.5Z" fill="black"/>
<path d="M67.6727 221.767L88.2119 197.514L101.874 155.784L65.354 197.182L67.6727 221.767Z" fill="black"/>
<path d="M103.5 221L90 198.085L103.5 156L117 198.085L103.5 221Z" fill="black"/>
<path d="M140.068 220.807L119.049 196.744L105.704 155.649L143.119 196.744L140.068 220.807Z" fill="black"/>
</svg>
