<svg width="250" height="250" viewBox="0 0 250 250" fill="none" xmlns="http://www.w3.org/2000/svg">
<g clip-path="url(#clip0_2_2)">
<path d="M125.871 40.9072C147.199 64.8367 147.77 96.4785 130.411 111.95C113.052 127.422 81.6841 123.227 60.3567 99.2976C39.0292 75.3681 38.4574 43.7262 55.8166 28.2546C73.1758 12.783 104.544 16.9776 125.871 40.9072Z" stroke="white" stroke-width="10"/>
<line x1="205.344" y1="193.555" x2="135.002" y2="114.631" stroke="white" stroke-width="10"/>
<rect x="215.769" y="227.284" width="49.7512" height="24.8756" transform="rotate(-131.71 215.769 227.284)" fill="white"/>
<path d="M83.1642 151.826C83.1642 143.239 90.1249 136.279 98.7114 136.279V136.279C107.298 136.279 114.259 143.239 114.259 151.826V166.129H83.1642V151.826Z" fill="white"/>
<path d="M54.1501 237.978L79.6964 207.814L96.6891 155.911L51.2661 207.401L54.1501 237.978Z" fill="white"/>
<path d="M98.7114 237.025L81.9204 208.523L98.7114 156.179L115.502 208.523L98.7114 237.025Z" fill="white"/>
<path d="M144.193 236.785L118.051 206.856L101.453 155.742L147.989 206.856L144.193 236.785Z" fill="white"/>
</g>
<defs>
<clipPath id="clip0_2_2">
<rect width="250" height="250" fill="white"/>
</clipPath>
</defs>
</svg>
